<svg width="128" height="128" viewBox="0 0 128 128" fill="none" xmlns="http://www.w3.org/2000/svg">
<rect width="128" height="128" rx="20" fill="url(#paint0_linear_47_310)"/>
<path fill-rule="evenodd" clip-rule="evenodd" d="M50.148 37.0506L86.8692 37.0506C89.1226 37.0506 90.9493 38.8773 90.9493 41.1307L90.9494 77.8519C90.9494 80.1053 89.1226 81.932 86.8692 81.932C84.6158 81.932 82.7891 80.1053 82.7891 77.8519L82.7891 50.981L40.1308 93.6393L34.3606 87.8691L77.0189 45.2108L50.148 45.2108C47.8946 45.2108 46.0679 43.3841 46.0679 41.1307C46.0679 38.8773 47.8946 37.0506 50.148 37.0506Z" fill="#A1D9F9"/>
<rect x="34.3081" y="87.8735" width="50.2086" height="8.26368" transform="rotate(-45 34.3081 87.8735)" fill="url(#paint1_linear_47_310)"/>
<defs>
<linearGradient id="paint0_linear_47_310" x1="0" y1="128" x2="128" y2="0" gradientUnits="userSpaceOnUse">
<stop stop-color="#D5F3FF"/>
<stop offset="0.760417" stop-color="#F2F7F9"/>
</linearGradient>
<linearGradient id="paint1_linear_47_310" x1="35.897" y1="92.0948" x2="97.591" y2="90.8567" gradientUnits="userSpaceOnUse">
<stop stop-color="#5BC3FF"/>
<stop offset="0.786458" stop-color="#A1D9F9"/>
</linearGradient>
</defs>
</svg>
